#!OML:ASF H:\ManfredObstacles\Project 1\Capture day 2\Session 1\male.ASF
:FULLY-SPECIFIED
:DEGREES
716
root 1.64456 15.844 -7.77856 -173.513 9.14553 178.607
lowerback -6.46123 2.46465 -4.46747
upperback 0.971792 3.73587 -1.16292
thorax 4.42706 1.76827 1.67081
lowerneck -34.0817 1.08586 3.45455
upperneck 39.4351 2.70835 -1.80296
head 22.101 1.95075 -0.52548
rclavicle -4.01048e-014 -2.38542e-015
rhumerus -27.6172 -7.79021 -86.2179
rradius 33.1022
rwrist 28.3161
rhand -1.7814 -6.20615
rfingers 7.12502
rthumb 23.883 -34.7412
lclavicle -4.01048e-014 -2.38542e-015
lhumerus -85.9647 57.5887 1.44159
lradius 12.1223
lwrist -110.814
lhand 2.06733 4.91868
lfingers 7.12502
lthumb 27.569 32.9196
rfemur 13.7092 5.05184 22.7502
rtibia 16.8022
rfoot 0.395705 -6.26266
rtoes -33.8551
lfemur -30.9027 -4.61979 -20.2539
ltibia 24.9059
lfoot 10.32 14.9593
ltoes 5.53745
717
root 1.63519 15.8609 -7.94054 -173.621 9.00537 178.175
lowerback -6.50027 2.34668 -4.93643
upperback 0.932928 3.63338 -1.30539
thorax 4.39681 1.71273 1.77551
lowerneck -34.0644 1.11004 3.50048
upperneck 39.3568 2.64568 -1.71389
head 22.0354 1.94311 -0.50583
rclavicle 2.3059e-014 -3.57812e-014
rhumerus -28.1348 -8.54471 -85.8709
rradius 32.8043
rwrist 28.5826
rhand -1.95161 -6.24088
rfingers 7.12502
rthumb 23.7198 -34.7971
lclavicle 2.3059e-014 -3.57812e-014
lhumerus -87.7498 57.6487 -0.581228
lradius 12.1052
lwrist -111.972
lhand 2.0666 4.89668
lfingers 7.12502
lthumb 27.5683 32.8977
rfemur 12.0885 4.37176 21.9776
rtibia 20.6069
rfoot 1.05873 -5.834
rtoes -33.8407
lfemur -30.2572 -4.24298 -21.0853
ltibia 24.9395
lfoot 9.91325 14.2645
ltoes 6.86725
718
root 1.62488 15.8784 -8.09932 -173.733 8.85332 177.747
lowerback -6.5217 2.23039 -5.37329
upperback 0.905723 3.53146 -1.45453
thorax 4.37237 1.6587 1.8549
lowerneck -34.0369 1.11638 3.50943
upperneck 39.2727 2.56818 -1.60372
head 21.9612 1.9273 -0.472908
rclavicle -2.55935e-014 8.74653e-015
rhumerus -28.6625 -9.35139 -85.4873
rradius 32.5138
rwrist 28.8422
rhand -2.08277 -6.26611
rfingers 7.12502
rthumb 23.594 -34.8386
lclavicle -2.55935e-014 8.74653e-015
lhumerus -88.8357 57.6918 -1.79494
lradius 12.0941
lwrist -112.766
lhand 2.11851 4.84824
lfingers 7.12502
lthumb 27.6179 32.8413
rfemur 10.4686 3.60411 21.1738
rtibia 24.2919
rfoot 2.14659 -5.3383
rtoes -33.4072
lfemur -29.577 -3.93219 -21.8842
ltibia 24.906
lfoot 9.42556 13.7098
ltoes 7.75387
719
root 1.61354 15.896 -8.25422 -173.846 8.70692 177.343
lowerback -6.51852 2.1232 -5.7555
upperback 0.888285 3.43672 -1.60632
thorax 4.34803 1.60989 1.90086
lowerneck -34.0173 1.10312 3.48403
upperneck 39.2059 2.4747 -1.47076
head 21.9001 1.90489 -0.425977
rclavicle 1.78906e-015 -1.59028e-015
rhumerus -29.1848 -10.1693 -85.0801
rradius 32.2259
rwrist 29.0817
rhand -2.17108 -6.29556
rfingers 7.12502
rthumb 23.5093 -34.879
lclavicle 1.78906e-015 -1.59028e-015
lhumerus -89.2311 57.749 -2.21212
lradius 12.0761
lwrist -113.175
lhand 2.21931 4.78777
lfingers 7.12502
lthumb 27.7143 32.7654
rfemur 8.83453 2.82874 20.385
rtibia 27.8755
rfoot 3.61454 -4.85546
rtoes -32.6228
lfemur -28.8697 -3.64979 -22.6382
ltibia 24.8087
lfoot 8.88714 13.236
ltoes 8.32402
720
root 1.60116 15.9142 -8.40585 -173.959 8.59137 176.976
lowerback -6.49284 2.02882 -6.07508
upperback 0.881882 3.35222 -1.75145
thorax 4.32551 1.56743 1.91905
lowerneck -34.0297 1.08447 3.42919
upperneck 39.1548 2.38669 -1.32727
head 21.859 1.88128 -0.366614
rclavicle -1.48095e-014 -3.57812e-015
rhumerus -29.6891 -10.9471 -84.6602
rradius 31.9513
rwrist 29.2783
rhand -2.2078 -6.32053
rfingers 7.12502
rthumb 23.4741 -34.9085
lclavicle -1.48095e-014 -3.57812e-015
lhumerus -88.709 57.8116 -1.54986
lradius 12.0561
lwrist -113.025
lhand 2.39019 4.7179
lfingers 7.12502
lthumb 27.8777 32.6691
rfemur 7.17931 2.08996 19.6283
rtibia 31.3655
rfoot 5.38332 -4.41954
rtoes -31.5444
lfemur -28.1318 -3.34155 -23.3459
ltibia 24.6482
lfoot 8.31837 12.8162
ltoes 8.74049
721
root 1.58775 15.9332 -8.5541 -174.067 8.5304 176.645
lowerback -6.45101 1.95548 -6.33359
upperback 0.881533 3.28908 -1.89164
thorax 4.30196 1.53689 1.9098
lowerneck -34.0798 1.06666 3.37719
upperneck 39.1381 2.30774 -1.19298
head 21.8538 1.86138 -0.309158
rclavicle -5.73494e-014 9.54166e-015
rhumerus -30.1706 -11.6561 -84.2401
rradius 31.6929
rwrist 29.4281
rhand -2.18373 -6.35469
rfingers 7.12502
rthumb 23.4972 -34.9397
lclavicle -5.73494e-014 9.54166e-015
lhumerus -87.1688 57.8589 0.307754
lradius 12.0313
lwrist -112.252
lhand 2.62892 4.66617
lfingers 7.12502
lthumb 28.1059 32.5802
rfemur 5.4932 1.44337 18.9166
rtibia 34.7667
rfoot 7.36447 -4.03966
rtoes -30.3372
lfemur -27.3708 -2.98772 -24.0104
ltibia 24.428
lfoot 7.77487 12.4695
ltoes 8.97013
722
root 1.57354 15.9529 -8.69936 -174.168 8.54032 176.352
lowerback -6.39331 1.89922 -6.54294
upperback 0.885262 3.24153 -2.01527
thorax 4.27424 1.51473 1.89122
lowerneck -34.153 1.06047 3.32308
upperneck 39.1297 2.25918 -1.08111
head 21.863 1.84818 -0.254686
rclavicle 7.15625e-015 2.66371e-014
rhumerus -30.6197 -12.2528 -83.8265
rradius 31.4598
rwrist 29.567
rhand -2.09205 -6.38977
rfingers 7.12502
rthumb 23.5851 -34.9634
lclavicle 7.15625e-015 2.66371e-014
lhumerus -84.7136 57.837 3.2586
lradius 12.013
lwrist -110.9
lhand 2.93289 4.61126
lfingers 7.12502
lthumb 28.3964 32.4772
rfemur 3.77326 0.906608 18.2571
rtibia 38.0824
rfoot 9.45371 -3.71042
rtoes -29.1305
lfemur -26.5882 -2.56592 -24.63
ltibia 24.1516
lfoot 7.26435 12.2009
ltoes 9.06565
723
root 1.55852 15.9728 -8.84199 -174.266 8.62563 176.102
lowerback -6.32718 1.86079 -6.6969
upperback 0.890345 3.21015 -2.12154
thorax 4.24371 1.50123 1.86102
lowerneck -34.2153 1.0811 3.30394
upperneck 39.1064 2.2546 -1.02106
head 21.8621 1.84736 -0.222164
rclavicle -4.32357e-015 2.62396e-014
rhumerus -31.0452 -12.7032 -83.438
rradius 31.2617
rwrist 29.6602
rhand -1.94819 -6.41787
rfingers 7.12502
rthumb 23.7231 -34.9737
lclavicle -4.32357e-015 2.62396e-014
lhumerus -81.3277 57.6544 7.3283
lradius 12.0135
lwrist -108.947
lhand 3.28207 4.5765
lfingers 7.12502
lthumb 28.7301 32.3864
rfemur 2.02818 0.477762 17.6577
rtibia 41.3155
rfoot 11.5613 -3.43309
rtoes -28.1014
lfemur -25.7834 -2.08537 -25.1951
ltibia 23.8256
lfoot 6.78617 11.988
ltoes 9.1138
724
root 1.54305 15.9923 -8.98274 -174.364 8.77484 175.882
lowerback -6.26391 1.84137 -6.80855
upperback 0.897924 3.19954 -2.21859
thorax 4.21733 1.49836 1.81895
lowerneck -34.252 1.1301 3.33987
upperneck 39.0465 2.28421 -1.02263
head 21.8321 1.85601 -0.223739
rclavicle -2.20154e-014 7.15625e-015
rhumerus -31.4495 -13.041 -83.074
rradius 31.0875
rwrist 29.755
rhand -1.76412 -6.41027
rfingers 7.12502
rthumb 23.8996 -34.9431
lclavicle -2.20154e-014 7.15625e-015
lhumerus -77.3086 57.2455 12.1602
lradius 12.0372
lwrist -106.589
lhand 3.63354 4.53952
lfingers 7.12502
lthumb 29.0658 32.2919
rfemur 0.272202 0.136514 17.1084
rtibia 44.4625
rfoot 13.6132 -3.20617
rtoes -27.1354
lfemur -24.9564 -1.57983 -25.7117
ltibia 23.4615
lfoot 6.32986 11.8405
ltoes 9.11307
725
root 1.52746 16.0109 -9.12107 -174.479 8.9752 175.672
lowerback -6.17355 1.83022 -6.90974
upperback 0.906658 3.19521 -2.30425
thorax 4.17616 1.49889 1.78226
lowerneck -34.2599 1.20725 3.42195
upperneck 38.974 2.35791 -1.07973
head 21.7891 1.87924 -0.250894
rclavicle 3.47873e-015 3.85642e-014
rhumerus -31.836 -13.227 -82.7503
rradius 30.9475
rwrist 29.8244
rhand -1.57166 -6.38904
rfingers 7.12502
rthumb 24.0842 -34.8976
lclavicle 3.47873e-015 3.85642e-014
lhumerus -72.8669 56.5428 17.536
lradius 12.0966
lwrist -103.896
lhand 3.98522 4.50504
lfingers 7.12502
lthumb 29.4016 32.199
rfemur -1.47927 -0.130162 16.595
rtibia 47.5179
rfoot 15.4947 -3.10981
rtoes -26.2386
lfemur -24.1006 -1.08396 -26.1922
ltibia 23.0671
lfoot 5.89631 11.7591
ltoes 9.06623
726
root 1.51214 16.028 -9.25744 -174.622 9.19503 175.474
lowerback -6.05918 1.8186 -7.00098
upperback 0.932371 3.18656 -2.37728
thorax 4.13927 1.49654 1.75212
lowerneck -34.2116 1.2963 3.50848
upperneck 38.87 2.45835 -1.15788
head 21.7106 1.90902 -0.283474
rclavicle -5.96354e-015 0
rhumerus -32.1817 -13.2823 -82.4742
rradius 30.8319
rwrist 29.8663
rhand -1.3853 -6.36843
rfingers 7.12502
rthumb 24.2628 -34.8532
lclavicle -5.96354e-015 0
lhumerus -68.3711 55.5718 23.0313
lradius 12.1905
lwrist -101.058
lhand 4.29194 4.47182
lfingers 7.12502
lthumb 29.6944 32.114
rfemur -3.19468 -0.358267 16.124
rtibia 50.4687
rfoot 17.0664 -3.27048
rtoes -25.274
lfemur -23.2037 -0.637059 -26.6304
ltibia 22.6443
lfoot 5.49631 11.7394
ltoes 8.98957
727
root 1.49775 16.0435 -9.3915 -174.802 9.40596 175.275
lowerback -5.90353 1.79783 -7.10968
upperback 0.970178 3.16243 -2.43688
thorax 4.09129 1.4859 1.74275
lowerneck -34.137 1.39067 3.59236
upperneck 38.7727 2.57788 -1.24107
head 21.6311 1.94605 -0.312539
rclavicle -2.56432e-014 2.22639e-014
rhumerus -32.4858 -13.2149 -82.2406
rradius 30.7207
rwrist 29.8835
rhand -1.2302 -6.34084
rfingers 7.12502
rthumb 24.4115 -34.8057
lclavicle -2.56432e-014 2.22639e-014
lhumerus -64.0567 54.3639 28.3725
lradius 12.3148
lwrist -98.1867
lhand 4.53383 4.45082
lfingers 7.12502
lthumb 29.9252 32.0516
rfemur -4.85961 -0.569115 15.6937
rtibia 53.2987
rfoot 18.1633 -3.81236
rtoes -24.2443
lfemur -22.261 -0.265777 -27.0373
ltibia 22.1909
lfoot 5.1421 11.7686
ltoes 8.89527
728
root 1.48468 16.0575 -9.5231 -175.017 9.57698 175.074
lowerback -5.70972 1.75585 -7.24383
upperback 1.02724 3.10762 -2.47851
thorax 4.04215 1.45866 1.76243
lowerneck -34.0357 1.47783 3.63535
upperneck 38.6885 2.70892 -1.30121
head 21.553 1.98643 -0.318664
rclavicle 7.05686e-015 5.1684e-015
rhumerus -32.7296 -13.0436 -82.0459
rradius 30.591
rwrist 29.8877
rhand -1.12446 -6.30771
rfingers 7.12502
rthumb 24.5129 -34.7588
lclavicle 7.05686e-015 5.1684e-015
lhumerus -59.9091 52.8964 33.5955
lradius 12.4789
lwrist -95.2222
lhand 4.70662 4.44781
lfingers 7.12502
lthumb 30.0901 32.0187
rfemur -6.46217 -0.794188 15.3092
rtibia 55.9856
rfoot 18.688 -4.80246
rtoes -23.1319
lfemur -21.2745 0.0207846 -27.4163
ltibia 21.7063
lfoot 4.83099 11.8187
ltoes 8.78898
